<?xml version="1.0" encoding="UTF-8" standalone="no"?>
<!-- Created with Inkscape (http://www.inkscape.org/) -->

<svg
   width="600"
   height="80"
   viewBox="0 0 158.75 21.166667"
   version="1.1"
   id="svg10900"
   inkscape:version="1.2.2 (b0a84865, 2022-12-01)"
   sodipodi:docname="sistemisolutions60.svg"
   xmlns:inkscape="http://www.inkscape.org/namespaces/inkscape"
   xmlns:sodipodi="http://sodipodi.sourceforge.net/DTD/sodipodi-0.dtd"
   xmlns="http://www.w3.org/2000/svg"
   xmlns:svg="http://www.w3.org/2000/svg">
  <sodipodi:namedview
     id="namedview10902"
     pagecolor="#ffffff"
     bordercolor="#000000"
     borderopacity="0.25"
     inkscape:showpageshadow="2"
     inkscape:pageopacity="0.0"
     inkscape:pagecheckerboard="0"
     inkscape:deskcolor="#d1d1d1"
     inkscape:document-units="mm"
     showgrid="false"
     inkscape:zoom="1.3470815"
     inkscape:cx="284.68953"
     inkscape:cy="109.49597"
     inkscape:window-width="1920"
     inkscape:window-height="1027"
     inkscape:window-x="0"
     inkscape:window-y="25"
     inkscape:window-maximized="0"
     inkscape:current-layer="layer1" />
  <defs
     id="defs10897">
    <rect
       x="-32.624451"
       y="-179.75432"
       width="355.03079"
       height="77.403107"
       id="rect1559" />
  </defs>
  <g
     inkscape:label="Layer 1"
     inkscape:groupmode="layer"
     id="layer1">
    <g
       aria-label="sistem:i solutions"
       transform="matrix(1.7323103,0,0,1.7323103,58.375466,310.61893)"
       id="text1557"
       style="font-size:12px;font-family:'SF Pro Text';-inkscape-font-specification:'SF Pro Text, Normal';white-space:pre;shape-inside:url(#rect1559);display:inline;fill:#ffffff;stroke-width:1.88976;stroke-linecap:round;stroke-linejoin:round;paint-order:stroke fill markers">
      <path
         d="m -32.126953,-173.25561 c 0,0.94922 0.5625,1.49414 1.775391,1.78125 l 1.113281,0.25781 c 0.638672,0.15235 0.9375,0.39844 0.9375,0.7793 0,0.50976 -0.556641,0.86133 -1.341797,0.86133 -0.761719,0 -1.230469,-0.30469 -1.388672,-0.79688 h -1.259766 c 0.111329,1.13086 1.101563,1.81641 2.619141,1.81641 1.523438,0 2.642578,-0.80274 2.642578,-2.00391 0,-0.9375 -0.568359,-1.45898 -1.78125,-1.74023 l -1.060547,-0.2461 c -0.691406,-0.1582 -1.013672,-0.39843 -1.013672,-0.77929 0,-0.49805 0.533204,-0.83203 1.236329,-0.83203 0.714843,0 1.171875,0.29882 1.289062,0.76757 h 1.207031 c -0.123047,-1.125 -1.060547,-1.79296 -2.496093,-1.79296 -1.441407,0 -2.478516,0.79687 -2.478516,1.92773 z"
         style="font-weight:500;-inkscape-font-specification:'SF Pro Text, Medium'"
         id="path13996" />
      <path
         d="m -26.027344,-168.67944 h 1.253907 v -6.38086 h -1.253907 z m 0.626953,-7.5 c 0.46875,0 0.814454,-0.33398 0.814454,-0.76758 0,-0.43945 -0.345704,-0.77343 -0.814454,-0.77343 -0.46875,0 -0.814453,0.33398 -0.814453,0.77343 0,0.4336 0.345703,0.76758 0.814453,0.76758 z"
         style="font-weight:500;-inkscape-font-specification:'SF Pro Text, Medium'"
         id="path13998" />
      <path
         d="m -23.607422,-173.25561 c 0,0.94922 0.5625,1.49414 1.775391,1.78125 l 1.113281,0.25781 c 0.638672,0.15235 0.9375,0.39844 0.9375,0.7793 0,0.50976 -0.556641,0.86133 -1.341797,0.86133 -0.761719,0 -1.230469,-0.30469 -1.388672,-0.79688 h -1.259765 c 0.111328,1.13086 1.101562,1.81641 2.61914,1.81641 1.523438,0 2.642578,-0.80274 2.642578,-2.00391 0,-0.9375 -0.568359,-1.45898 -1.78125,-1.74023 l -1.060546,-0.2461 c -0.691407,-0.1582 -1.013672,-0.39843 -1.013672,-0.77929 0,-0.49805 0.533203,-0.83203 1.236328,-0.83203 0.714844,0 1.171875,0.29882 1.289062,0.76757 h 1.207032 c -0.123047,-1.125 -1.060547,-1.79296 -2.496094,-1.79296 -1.441406,0 -2.478516,0.79687 -2.478516,1.92773 z"
         style="font-weight:500;-inkscape-font-specification:'SF Pro Text, Medium'"
         id="path14000" />
      <path
         d="m -17.132812,-176.64819 v 1.61719 h -1.013672 v 1.06055 h 1.013672 v 3.60351 c 0,1.23047 0.55664,1.72266 1.957031,1.72266 0.246093,0 0.480468,-0.0293 0.685547,-0.0645 v -1.04882 c -0.175782,0.0176 -0.28711,0.0293 -0.480469,0.0293 -0.626953,0 -0.902344,-0.29297 -0.902344,-0.96093 v -3.28125 h 1.382813 v -1.06055 h -1.382813 v -1.61719 z"
         style="font-weight:500;-inkscape-font-specification:'SF Pro Text, Medium'"
         id="path14002" />
      <path
         d="m -10.998047,-174.11108 c 0.931641,0 1.5410157,0.65039 1.5703126,1.65234 h -3.2226566 c 0.07031,-0.99609 0.720703,-1.65234 1.652344,-1.65234 z m 1.5644532,3.70899 c -0.234375,0.49804 -0.7558592,0.77343 -1.5175782,0.77343 -1.007812,0 -1.658203,-0.70898 -1.699219,-1.82812 v -0.0703 h 4.5058597 v -0.43946 c 0,-2.0039 -1.0722656,-3.21679 -2.8476567,-3.21679 -1.798828,0 -2.941406,1.29492 -2.941406,3.33398 0,2.03906 1.119141,3.29297 2.947266,3.29297 1.4589842,0 2.4785155,-0.70313 2.7656249,-1.8457 z"
         style="font-weight:500;-inkscape-font-specification:'SF Pro Text, Medium'"
         id="path14004" />
      <path
         d="m -7.171875,-168.67944 h 1.2597656 v -3.90234 c 0,-0.82031 0.5800782,-1.44727 1.3476563,-1.44727 0.75,0 1.2304687,0.43946 1.2304687,1.16016 v 4.18945 h 1.2363281 v -4.01367 c 0,-0.75 0.5332032,-1.33594 1.3476563,-1.33594 0.82617187,0 1.23632813,0.42188 1.23632813,1.28321 v 4.0664 H 1.7460937 v -4.39453 c 0,-1.33008 -0.74999995,-2.10937 -2.03906245,-2.10937 -0.88476565,0 -1.61718745,0.45117 -1.93945315,1.14843 h -0.099609 c -0.28125,-0.69726 -0.8847656,-1.14843 -1.7578124,-1.14843 -0.8496094,0 -1.4941407,0.42773 -1.7753907,1.14843 h -0.09375 v -1.02539 H -7.171875 Z"
         style="font-weight:500;-inkscape-font-specification:'SF Pro Text, Medium'"
         id="path14006" />
      <path
         d="m 3.9550781,-168.57983 c 0.4980469,0 0.8613281,-0.38086 0.8613281,-0.87305 0,-0.49218 -0.3632812,-0.87304 -0.8613281,-0.87304 -0.4921875,0 -0.8613281,0.38086 -0.8613281,0.87304 0,0.49219 0.3691406,0.87305 0.8613281,0.87305 z m 0,-4.42383 c 0.4980469,0 0.8613281,-0.38086 0.8613281,-0.87304 0,-0.49805 -0.3632812,-0.87305 -0.8613281,-0.87305 -0.4921875,0 -0.8613281,0.375 -0.8613281,0.87305 0,0.49218 0.3691406,0.87304 0.8613281,0.87304 z"
         style="font-weight:500;-inkscape-font-specification:'SF Pro Text, Medium'"
         id="path14008" />
      <path
         d="m 6.2402344,-168.67944 h 1.2539062 v -6.38086 H 6.2402344 Z m 0.6269531,-7.5 c 0.46875,0 0.8144531,-0.33398 0.8144531,-0.76758 0,-0.43945 -0.3457031,-0.77343 -0.8144531,-0.77343 -0.46875,0 -0.8144531,0.33398 -0.8144531,0.77343 0,0.4336 0.3457031,0.76758 0.8144531,0.76758 z"
         style="font-weight:500;-inkscape-font-specification:'SF Pro Text, Medium';fill:#e4333d"
         id="path14010" />
      <path
         d="m 11.583984,-173.32006 c 0,0.89062 0.550782,1.37109 1.722657,1.65234 l 0.955078,0.22852 c 0.84375,0.19921 1.236328,0.52148 1.236328,1.07226 0,0.66211 -0.697266,1.13672 -1.623047,1.13672 -0.914062,0 -1.517578,-0.39844 -1.6875,-1.03125 h -0.796875 c 0.128906,1.03711 1.083984,1.6875 2.460938,1.6875 1.376953,0 2.437499,-0.76172 2.437499,-1.85156 0,-0.91406 -0.591796,-1.40625 -1.810546,-1.69922 l -0.867188,-0.20508 c -0.84375,-0.19922 -1.253906,-0.49805 -1.253906,-1.01953 0,-0.63281 0.673828,-1.08984 1.5,-1.08984 0.837891,0 1.423828,0.38671 1.564453,0.97851 h 0.755859 c -0.140625,-1.00195 -1.042968,-1.63476 -2.314453,-1.63476 -1.271484,0 -2.279297,0.76171 -2.279297,1.77539 z"
         style="font-weight:300;-inkscape-font-specification:'SF Pro Text, Light'"
         id="path14012" />
      <path
         d="m 19.939453,-168.57397 c 1.763672,0 2.871094,-1.24805 2.871094,-3.26367 0,-2.01563 -1.107422,-3.25781 -2.871094,-3.25781 -1.763672,0 -2.865234,1.24218 -2.865234,3.25781 0,2.01562 1.101562,3.26367 2.865234,3.26367 z m 0,-0.69727 c -1.300781,0 -2.074219,-0.96679 -2.074219,-2.5664 0,-1.59961 0.773438,-2.56641 2.074219,-2.56641 1.300781,0 2.074219,0.9668 2.074219,2.56641 0,1.59961 -0.773438,2.5664 -2.074219,2.5664 z"
         style="font-weight:300;-inkscape-font-specification:'SF Pro Text, Light'"
         id="path14014" />
      <path
         d="m 23.988281,-168.67944 h 0.767578 v -8.82422 h -0.767578 z"
         style="font-weight:300;-inkscape-font-specification:'SF Pro Text, Light'"
         id="path14016" />
      <path
         d="m 31.265625,-174.98999 h -0.767578 v 3.75 c 0,1.19532 -0.714844,1.9629 -1.892578,1.9629 -1.083985,0 -1.634766,-0.62696 -1.634766,-1.80469 v -3.90821 h -0.767578 v 4.10157 c 0,1.44726 0.796875,2.31445 2.203125,2.31445 1.007812,0 1.740234,-0.45703 2.056641,-1.24219 h 0.07031 v 1.13672 h 0.732422 z"
         style="font-weight:300;-inkscape-font-specification:'SF Pro Text, Light'"
         id="path14018" />
      <path
         d="m 33.105469,-176.63061 v 1.64062 h -1.03125 v 0.6504 h 1.03125 v 4.08984 c 0,1.14844 0.480468,1.60547 1.6875,1.60547 0.134765,0 0.404297,-0.0176 0.539062,-0.041 v -0.65625 c -0.128906,0.0117 -0.333984,0.0176 -0.457031,0.0176 -0.708984,0 -1.001953,-0.32812 -1.001953,-1.10156 v -3.91406 h 1.458984 v -0.6504 h -1.458984 v -1.64062 z"
         style="font-weight:300;-inkscape-font-specification:'SF Pro Text, Light'"
         id="path14020" />
      <path
         d="m 36.445312,-168.67944 h 0.767579 v -6.31055 h -0.767579 z m 0.38086,-7.7168 c 0.316406,0 0.574219,-0.25781 0.574219,-0.57421 0,-0.31055 -0.257813,-0.56836 -0.574219,-0.56836 -0.310547,0 -0.56836,0.25781 -0.56836,0.56836 0,0.3164 0.257813,0.57421 0.56836,0.57421 z"
         style="font-weight:300;-inkscape-font-specification:'SF Pro Text, Light'"
         id="path14022" />
      <path
         d="m 41.232422,-168.57397 c 1.763672,0 2.871094,-1.24805 2.871094,-3.26367 0,-2.01563 -1.107422,-3.25781 -2.871094,-3.25781 -1.763672,0 -2.865235,1.24218 -2.865235,3.25781 0,2.01562 1.101563,3.26367 2.865235,3.26367 z m 0,-0.69727 c -1.300781,0 -2.074219,-0.96679 -2.074219,-2.5664 0,-1.59961 0.773438,-2.56641 2.074219,-2.56641 1.300781,0 2.074219,0.9668 2.074219,2.56641 0,1.59961 -0.773438,2.5664 -2.074219,2.5664 z"
         style="font-weight:300;-inkscape-font-specification:'SF Pro Text, Light'"
         id="path14024" />
      <path
         d="m 45.222656,-168.67944 h 0.767578 v -3.75 c 0,-1.18945 0.761719,-1.97461 1.875,-1.97461 1.095703,0 1.646485,0.61524 1.646485,1.81641 v 3.9082 h 0.767578 v -4.10156 c 0,-1.4707 -0.802735,-2.31445 -2.208985,-2.31445 -1.007812,0 -1.705078,0.46289 -2.039062,1.24218 h -0.07617 v -1.13672 h -0.732422 z"
         style="font-weight:300;-inkscape-font-specification:'SF Pro Text, Light'"
         id="path14026" />
      <path
         d="m 51.521484,-173.32006 c 0,0.89062 0.550782,1.37109 1.722657,1.65234 l 0.955078,0.22852 c 0.84375,0.19921 1.236328,0.52148 1.236328,1.07226 0,0.66211 -0.697266,1.13672 -1.623047,1.13672 -0.914063,0 -1.517578,-0.39844 -1.6875,-1.03125 h -0.796875 c 0.128906,1.03711 1.083984,1.6875 2.460937,1.6875 1.376954,0 2.4375,-0.76172 2.4375,-1.85156 0,-0.91406 -0.591796,-1.40625 -1.810546,-1.69922 l -0.867188,-0.20508 c -0.84375,-0.19922 -1.253906,-0.49805 -1.253906,-1.01953 0,-0.63281 0.673828,-1.08984 1.5,-1.08984 0.83789,0 1.423828,0.38671 1.564453,0.97851 h 0.755859 c -0.140625,-1.00195 -1.042968,-1.63476 -2.314453,-1.63476 -1.271484,0 -2.279297,0.76171 -2.279297,1.77539 z"
         style="font-weight:300;-inkscape-font-specification:'SF Pro Text, Light'"
         id="path14028" />
    </g>
  </g>
</svg>
